<svg xmlns="http://www.w3.org/2000/svg" viewBox="0 0 900 480" width="900" height="480">
  <defs>
    <linearGradient id="labBg" x1="0" y1="0" x2="1" y2="1">
      <stop offset="0%" stop-color="#2563EB" stop-opacity="0.08"/>
      <stop offset="50%" stop-color="#7C3AED" stop-opacity="0.06"/>
      <stop offset="100%" stop-color="#06B6D4" stop-opacity="0.08"/>
    </linearGradient>
    <radialGradient id="glowCenter" cx="50%" cy="35%" r="60%">
      <stop offset="0%" stop-color="#FACC15" stop-opacity="0.18"/>
      <stop offset="100%" stop-color="#FACC15" stop-opacity="0"/>
    </radialGradient>
    <pattern id="grid" width="40" height="40" patternUnits="userSpaceOnUse">
      <path d="M40 0H0V40" fill="none" stroke="#2563EB" stroke-opacity="0.06" stroke-width="1"/>
    </pattern>
  </defs>

  <rect x="0" y="0" width="900" height="480" rx="32" fill="url(#labBg)"/>
  <rect x="0" y="0" width="900" height="480" rx="32" fill="url(#grid)"/>
  <rect x="0" y="0" width="900" height="480" rx="32" fill="url(#glowCenter)"/>

  <!-- connecting network lines -->
  <g stroke="#2563EB" stroke-opacity="0.25" stroke-width="1.5" fill="none">
    <path d="M120 260 L450 150 L780 260"/>
    <path d="M230 230 L450 150 L670 230"/>
    <path d="M340 250 L450 300 L560 250"/>
    <path d="M450 150 L450 300"/>
  </g>
  <g fill="#7C3AED">
    <circle cx="120" cy="260" r="3"/><circle cx="230" cy="230" r="3"/><circle cx="340" cy="250" r="3"/>
    <circle cx="450" cy="150" r="4"/><circle cx="560" cy="250" r="3"/><circle cx="670" cy="230" r="3"/>
    <circle cx="780" cy="260" r="3"/><circle cx="450" cy="300" r="3"/>
  </g>

  
  <g transform="translate(70,190) scale(0.85)" class="figure">
    <path d="M18 145 C18 108,33 94,50 94 C67 94,82 108,82 145 Z" fill="#2563EB" opacity="0.9"/>
    <rect x="41" y="78" width="18" height="20" rx="7" fill="#F0C29B"/>
    <ellipse cx="50" cy="59" rx="25" ry="28" fill="#F0C29B"/>
    <path d="M50 20 C 26 20,14 42,14 70 L14 122 C14 133,23 140,34 140 L32 98 C32 68,41 40,50 30 C59 40,68 68,68 98 L66 140 C77 140,86 133,86 122 L86 70 C86 42,74 20,50 20 Z" fill="#7C3AED" opacity="0.95"/>
  </g>

  <g transform="translate(180,160) scale(0.9)" class="figure">
    <path d="M18 145 C18 108,33 94,50 94 C67 94,82 108,82 145 Z" fill="#06B6D4" opacity="0.9"/>
    <rect x="41" y="78" width="18" height="20" rx="7" fill="#E8B58C"/>
    <ellipse cx="50" cy="59" rx="25" ry="28" fill="#E8B58C"/>
    <path d="M50 20 C 26 20,14 42,14 70 L14 122 C14 133,23 140,34 140 L32 98 C32 68,41 40,50 30 C59 40,68 68,68 98 L66 140 C77 140,86 133,86 122 L86 70 C86 42,74 20,50 20 Z" fill="#06B6D4" opacity="0.95"/>
  </g>

  <g transform="translate(290,180) scale(0.85)" class="figure">
    <path d="M18 145 C18 108,33 94,50 94 C67 94,82 108,82 145 Z" fill="#7C3AED" opacity="0.9"/>
    <rect x="41" y="78" width="18" height="20" rx="7" fill="#D9A574"/>
    <ellipse cx="50" cy="59" rx="25" ry="28" fill="#D9A574"/>
    <path d="M50 20 C 26 20,14 42,14 70 L14 122 C14 133,23 140,34 140 L32 98 C32 68,41 40,50 30 C59 40,68 68,68 98 L66 140 C77 140,86 133,86 122 L86 70 C86 42,74 20,50 20 Z" fill="#FACC15" opacity="0.95"/>
  </g>

  <g transform="translate(400,80) scale(1.15)" class="figure">
    <path d="M18 145 C18 108,33 94,50 94 C67 94,82 108,82 145 Z" fill="#2563EB" opacity="0.9"/>
    <rect x="41" y="78" width="18" height="20" rx="7" fill="#F0C29B"/>
    <ellipse cx="50" cy="59" rx="25" ry="28" fill="#F0C29B"/>
    <path d="M26 44 C26 22,39 12,50 12 C61 12,74 22,74 44 L74 53 C67 46,60 51,50 49 C40 51,33 46,26 53 Z" fill="#2A2118"/>
  </g>

  <g transform="translate(510,180) scale(0.85)" class="figure">
    <path d="M18 145 C18 108,33 94,50 94 C67 94,82 108,82 145 Z" fill="#FACC15" opacity="0.9"/>
    <rect x="41" y="78" width="18" height="20" rx="7" fill="#E8B58C"/>
    <ellipse cx="50" cy="59" rx="25" ry="28" fill="#E8B58C"/>
    <path d="M50 20 C 26 20,14 42,14 70 L14 122 C14 133,23 140,34 140 L32 98 C32 68,41 40,50 30 C59 40,68 68,68 98 L66 140 C77 140,86 133,86 122 L86 70 C86 42,74 20,50 20 Z" fill="#7C3AED" opacity="0.95"/>
  </g>

  <g transform="translate(620,160) scale(0.9)" class="figure">
    <path d="M18 145 C18 108,33 94,50 94 C67 94,82 108,82 145 Z" fill="#06B6D4" opacity="0.9"/>
    <rect x="41" y="78" width="18" height="20" rx="7" fill="#D9A574"/>
    <ellipse cx="50" cy="59" rx="25" ry="28" fill="#D9A574"/>
    <path d="M50 20 C 26 20,14 42,14 70 L14 122 C14 133,23 140,34 140 L32 98 C32 68,41 40,50 30 C59 40,68 68,68 98 L66 140 C77 140,86 133,86 122 L86 70 C86 42,74 20,50 20 Z" fill="#06B6D4" opacity="0.95"/>
  </g>

  <g transform="translate(730,190) scale(0.85)" class="figure">
    <path d="M18 145 C18 108,33 94,50 94 C67 94,82 108,82 145 Z" fill="#7C3AED" opacity="0.9"/>
    <rect x="41" y="78" width="18" height="20" rx="7" fill="#F0C29B"/>
    <ellipse cx="50" cy="59" rx="25" ry="28" fill="#F0C29B"/>
    <path d="M50 20 C 26 20,14 42,14 70 L14 122 C14 133,23 140,34 140 L32 98 C32 68,41 40,50 30 C59 40,68 68,68 98 L66 140 C77 140,86 133,86 122 L86 70 C86 42,74 20,50 20 Z" fill="#2563EB" opacity="0.95"/>
  </g>

  <g transform="translate(400,230) scale(0.8)" class="figure">
    <path d="M18 145 C18 108,33 94,50 94 C67 94,82 108,82 145 Z" fill="#2563EB" opacity="0.9"/>
    <rect x="41" y="78" width="18" height="20" rx="7" fill="#E8B58C"/>
    <ellipse cx="50" cy="59" rx="25" ry="28" fill="#E8B58C"/>
    <path d="M50 20 C 26 20,14 42,14 70 L14 122 C14 133,23 140,34 140 L32 98 C32 68,41 40,50 30 C59 40,68 68,68 98 L66 140 C77 140,86 133,86 122 L86 70 C86 42,74 20,50 20 Z" fill="#FACC15" opacity="0.95"/>
  </g>
</svg>