<svg xmlns="http://www.w3.org/2000/svg" viewBox="0 0 100 140" width="100" height="140">
  <defs>
    <linearGradient id="bg-aiman" x1="0" y1="0" x2="1" y2="1">
      <stop offset="0%" stop-color="#2563EB" stop-opacity="0.14"/>
      <stop offset="100%" stop-color="#2563EB" stop-opacity="0.04"/>
    </linearGradient>
  </defs>
  <rect x="0" y="0" width="100" height="140" rx="20" fill="url(#bg-aiman)"/>
  <!-- shoulders/body -->
  <path d="M20 140 C 20 108, 34 96, 50 96 C 66 96, 80 108, 80 140 Z" fill="#2563EB" opacity="0.85"/>
  <!-- neck -->
  <rect x="42" y="80" width="16" height="20" rx="6" fill="#F0C29B"/>
  <!-- face -->
  <ellipse cx="50" cy="62" rx="24" ry="27" fill="#F0C29B"/>
  
  
        <path d="M28 46 C 28 26, 40 16, 50 16 C 60 16, 72 26, 72 46 L 72 54 C 66 48, 60 52, 50 50 C 40 52, 34 48, 28 54 Z" fill="#2A2118"/>
        
</svg>