<svg xmlns="http://www.w3.org/2000/svg" viewBox="0 0 100 140" width="100" height="140">
  <defs>
    <linearGradient id="bg-aisyah" x1="0" y1="0" x2="1" y2="1">
      <stop offset="0%" stop-color="#06B6D4" stop-opacity="0.14"/>
      <stop offset="100%" stop-color="#06B6D4" stop-opacity="0.04"/>
    </linearGradient>
  </defs>
  <rect x="0" y="0" width="100" height="140" rx="20" fill="url(#bg-aisyah)"/>
  <!-- shoulders/body -->
  <path d="M20 140 C 20 108, 34 96, 50 96 C 66 96, 80 108, 80 140 Z" fill="#06B6D4" opacity="0.85"/>
  <!-- neck -->
  <rect x="42" y="80" width="16" height="20" rx="6" fill="#F0C29B"/>
  <!-- face -->
  <ellipse cx="50" cy="62" rx="24" ry="27" fill="#F0C29B"/>
  
        <path d="M50 22 C 28 22, 16 42, 16 68 L 16 118 C 16 128, 24 134, 34 134 L 32 96 C 32 68, 40 42, 50 32 C 60 42, 68 68, 68 96 L 66 134 C 76 134, 84 128, 84 118 L 84 68 C 84 42, 72 22, 50 22 Z" fill="#06B6D4" opacity="0.92"/>
        
  
</svg>